<?xml version="1.0" encoding="UTF-8"?>
<svg id="Layer_2" data-name="Layer 2" xmlns="http://www.w3.org/2000/svg" viewBox="0 0 240.68 95.98">
  <defs>
    <style>
      .cls-1 {
        fill: #939598;
      }

      .cls-1, .cls-2, .cls-3 {
        stroke: #98ff98;
        stroke-miterlimit: 10;
        stroke-width: 2.32px;
      }

      .cls-2 {
        fill: #414042;
      }

      .cls-3 {
        fill: #f1f2f2;
      }
    </style>
  </defs>
  <g id="Layer_2-2" data-name="Layer 2">
    <g>
      <polygon class="cls-1" points="144.89 47.99 154.84 43.15 133.35 1.16 120.34 1.16 107.33 1.16 85.84 43.15 95.78 47.99 144.89 47.99"/>
      <polygon class="cls-2" points="125.01 80.07 129.5 94.82 120.34 94.82 111.18 94.82 115.67 80.07 125.01 80.07"/>
      <rect class="cls-3" x="95.78" y="47.99" width="49.11" height="32.08"/>
      <polygon class="cls-2" points="1.16 80.48 89.37 80.48 89.37 73.59 89.37 66.69 1.16 66.69 1.16 80.48"/>
      <line class="cls-2" x1="95.78" y1="73.11" x2="89.37" y2="73.11"/>
      <polygon class="cls-2" points="239.52 80.48 151.31 80.48 151.31 73.59 151.31 66.69 239.52 66.69 239.52 80.48"/>
      <line class="cls-2" x1="144.89" y1="73.11" x2="151.31" y2="73.11"/>
      <polygon class="cls-2" points="109.57 16.18 104.88 22.96 120.34 22.96 120.34 16.18 109.57 16.18"/>
      <polygon class="cls-2" points="131.11 16.18 135.8 22.96 120.34 22.96 120.34 16.18 131.11 16.18"/>
    </g>
  </g>
</svg>